<?xml version="1.0" encoding="utf-8"?>
<svg viewBox="0 0 372.959 150.482" xmlns="http://www.w3.org/2000/svg" xmlns:bx="https://boxy-svg.com">
  <defs>
    <clipPath id="pa68f108433">
      <rect x="-326.053" y="-164.621" width="443.52" height="211.199"/>
    </clipPath>
    <clipPath id="pef1c46e6df">
      <rect x="340.534" y="466.036" width="334.8" height="217.44"/>
    </clipPath>
    <clipPath id="p6ec198c4be">
      <rect x="-269.657" y="-279.17" width="334.799" height="217.44"/>
    </clipPath>
    <clipPath id="clip-1">
      <rect x="-326.053" y="-164.621" width="443.52" height="211.199"/>
    </clipPath>
    <clipPath id="clip-2">
      <rect x="340.534" y="466.036" width="334.8" height="217.44"/>
    </clipPath>
    <clipPath id="clip-3">
      <rect x="-269.657" y="-279.17" width="334.799" height="217.44"/>
    </clipPath>
  </defs>
  <rect y="35" width="30" height="30" style="stroke: rgb(0, 0, 0); fill: rgb(255, 255, 255);"/>
  <path d="M -80 -85 L -75 -75 L -85 -75 L -80 -85 Z" style="stroke: rgb(0, 0, 0);" transform="matrix(0, 1, -1, 0, -65.000145, 129.999573)" bx:shape="triangle -85 -85 10 10 0.5 0 1@aca44410"/>
  <path style="fill: rgb(216, 216, 216); stroke: rgb(0, 0, 0);" d="M 34.971 40 L 65 20"/>
  <path style="fill: rgb(216, 216, 216); stroke: rgb(0, 0, 0);" d="M 34.972 50 L 65 50.012" bx:origin="-0.52422 4.083153"/>
  <path style="fill: rgb(216, 216, 216); stroke: rgb(0, 0, 0);" d="M 34.971 60 L 65 80" transform="matrix(-1, 0, 0, -1, 99.971001, 140)"/>
  <rect width="25" height="25" style="stroke: rgb(0, 0, 0); fill: rgb(255, 145, 145);" x="70"/>
  <rect x="72.5" y="2.5" width="25" height="25" style="stroke: rgb(0, 0, 0); fill: rgb(255, 145, 145);"/>
  <rect x="75" y="5" width="25" height="25" style="stroke: rgb(0, 0, 0); fill: rgb(255, 145, 145);"/>
  <rect y="40" width="25" height="25" style="stroke: rgb(0, 0, 0); fill: rgb(174, 255, 145);" x="70"/>
  <rect x="72.5" y="42.5" width="25" height="25" style="stroke: rgb(0, 0, 0); fill: rgb(174, 255, 145);"/>
  <rect x="75" y="45" width="25" height="25" style="stroke: rgb(0, 0, 0); fill: rgb(174, 255, 145);"/>
  <rect y="80" width="25" height="25" style="stroke: rgb(0, 0, 0); fill: rgb(149, 145, 255);" x="70"/>
  <rect x="72.5" y="82.5" width="25" height="25" style="stroke: rgb(0, 0, 0); fill: rgb(149, 145, 255);"/>
  <rect x="75" y="85" width="25" height="25" style="stroke: rgb(0, 0, 0); fill: rgb(149, 145, 255);"/>
  <g id="figure_1" transform="matrix(0.173611, 0, 0, 0.104167, 203.51561, 89.901016)" style="stroke-linejoin: round;">
    <g id="axes_1" transform="matrix(1, 0, 0, 1, -74.739067, -8.897474)">
      <g id="line2d_1" transform="matrix(1, 0, 0, 1, 72.381874, 164.869186)">
        <path d="M -305.893 30.483 L -302.194 36.978 L -298.495 7.334 L -294.796 20.65 L -291.096 21.935 L -287.397 22.454 L -283.698 -8.82 L -279.999 -18.878 L -276.3 -50.448 L -272.601 -55.292 L -268.902 -65.71 L -265.203 -68.201 L -261.504 -77.597 L -257.805 -68.914 L -254.106 -69.19 L -250.407 -63.101 L -246.707 -56.466 L -243.008 -77.254 L -239.309 -66.948 L -235.61 -69.359 L -231.911 -67.613 L -228.212 -58.633 L -224.513 -70.359 L -220.814 -68.234 L -217.115 -76.941 L -213.416 -71.432 L -209.717 -83.065 L -206.018 -90.557 L -202.318 -99.869 L -198.619 -111.238 L -194.92 -114.32 L -191.221 -114.489 L -187.522 -124.738 L -183.823 -117.553 L -180.124 -127.607 L -176.425 -121.564 L -172.726 -131.072 L -169.027 -126.926 L -165.328 -107.109 L -161.629 -102.339 L -157.929 -108.584 L -154.23 -108.864 L -150.531 -126.242 L -146.832 -123.117 L -143.133 -108.552 L -139.434 -111.487 L -135.735 -94.391 L -132.036 -93.506 L -128.337 -107.872 L -124.638 -122.426 L -120.939 -116.27 L -117.239 -123.12 L -113.54 -100.827 L -109.841 -110.709 L -106.142 -102.093 L -102.443 -84.013 L -98.744 -92.583 L -95.045 -83.577 L -91.346 -60.374 L -87.647 -61.583 L -83.948 -73.959 L -80.249 -67.881 L -76.55 -61 L -72.85 -58.259 L -69.151 -54.336 L -65.452 -49.452 L -61.753 -72.075 L -58.054 -86.369 L -54.355 -101.062 L -50.656 -113.518 L -46.957 -109.499 L -43.258 -114.479 L -39.559 -94.122 L -35.86 -107.996 L -32.161 -96.503 L -28.461 -86.616 L -24.762 -86.787 L -21.063 -91.648 L -17.364 -107.638 L -13.665 -111.096 L -9.966 -113.464 L -6.267 -119.285 L -2.568 -92.741 L 1.131 -94.843 L 4.83 -99.286 L 8.529 -81.015 L 12.228 -81.794 L 15.928 -93.321 L 19.627 -113.056 L 23.326 -124.961 L 27.025 -120.361 L 30.724 -121.392 L 34.423 -119.983 L 38.122 -114.151 L 41.821 -124.156 L 45.52 -116.668 L 49.219 -114.782 L 52.918 -129.227 L 56.617 -129.678 L 60.317 -152.186 L 64.016 -145.806 L 67.715 -136.707 L 71.414 -148.785 L 75.113 -153.039 L 78.812 -155.021 L 82.511 -147.818 L 86.21 -144.543 L 89.909 -135.921 L 93.608 -134.811 L 97.307 -145.624" clip-path="url(#pa68f108433)" style="stroke-linecap: square; fill-rule: evenodd; paint-order: fill; vector-effect: non-scaling-stroke; stroke-width: 2px; fill: none; stroke: rgb(100, 85, 218);"/>
        <g id="g-1" transform="matrix(0.933334, 0, 0, 0.666664, 776.632813, -553.461365)" style="stroke-linejoin: round;" bx:origin="0.509 0.5">
          <g id="g-2" transform="matrix(1.419353, 0, 0, 1.456953, -1633.928955, -1175.731812)">
            <g id="g-3">
              <path d="M 355.752 564.147 L 358.544 550.8 L 361.337 537.725 L 364.129 522.119 L 366.921 508.448 L 369.714 513.111 L 372.506 563.823 L 375.298 609.67 L 378.091 627.809 L 380.883 632.902 L 383.675 633.609 L 386.467 639.375 L 389.26 638.584 L 392.052 632.086 L 394.844 623.896 L 397.637 617.435 L 400.429 611.259 L 403.221 605.465 L 406.014 591.872 L 408.806 578.499 L 411.598 566.31 L 414.391 550.846 L 417.183 535.969 L 419.975 522.563 L 422.768 505.337 L 425.56 489.821 L 428.352 503.343 L 431.145 556.249 L 433.937 588.607 L 436.729 599.681 L 439.522 600.08 L 442.314 601.242 L 445.106 602.376 L 447.899 599.268 L 450.691 593.363 L 453.483 584.337 L 456.276 580.127 L 459.068 575.232 L 461.86 567.497 L 464.653 554.302 L 467.445 541.25 L 470.237 528.247 L 473.03 515.925 L 475.822 502.287 L 478.614 486.756 L 481.407 475.92 L 484.199 497.642 L 486.991 549.625 L 489.784 580.965 L 492.576 589.343 L 495.368 592.221 L 498.161 593.234 L 500.953 592.426 L 503.745 586.665 L 506.538 578.801 L 509.33 572.508 L 512.122 570.368 L 514.915 565.929 L 517.707 554.752 L 520.499 543.404 L 523.292 526.773 L 526.084 517.497 L 528.876 502.793 L 531.668 492.156 L 534.461 480.472 L 537.253 484.831 L 540.045 532.183 L 542.838 582.33 L 545.63 606.642 L 548.422 613.915 L 551.215 620.157 L 554.007 626.078 L 556.799 626.341 L 559.592 620.318 L 562.384 610.093 L 565.176 605.24 L 567.969 600.911 L 570.761 592.425 L 573.553 582.938 L 576.346 570.574 L 579.138 556.118 L 581.93 544.581 L 584.723 530.481 L 587.515 518.602 L 590.307 504.541 L 593.1 503.161 L 595.892 545.71 L 598.684 605.092 L 601.477 635.439 L 604.269 645.836 L 607.061 653.314 L 609.854 663.871 L 612.646 673.593 L 615.438 672.434 L 618.231 667.325 L 621.023 659.766 L 623.815 652.037 L 626.608 642.939 L 629.4 626.295 L 632.192 608.07 L 634.985 594.691 L 637.777 582.615 L 640.569 572.309 L 643.362 560.715 L 646.154 548.97 L 648.946 535.511 L 651.739 525.122 L 654.531 519.779 L 657.323 558.747 L 660.116 620.017" clip-path="url(#pef1c46e6df)" style="fill: none; stroke-linecap: square; vector-effect: non-scaling-stroke; stroke-width: 2px; stroke: rgb(218, 85, 85);" bx:origin="0.505 0.513"/>
            </g>
          </g>
          <g id="g-4" transform="matrix(1, 0, 0, 1.000001, -187.928787, 1025.426636)" style="stroke-linejoin: round;">
            <g id="g-5" transform="matrix(1.419354, 0, 0, 1.456953, -610.666565, -611.426819)">
              <g id="g-6">
                <path d="M -254.439 -231.862 L -251.647 -240.623 L -248.855 -249.857 L -246.062 -259.744 L -243.27 -269.18 L -240.478 -269.286 L -237.685 -239.659 L -234.893 -201.384 L -232.101 -180.201 L -229.308 -172.617 L -226.516 -166.719 L -223.724 -161.732 L -220.931 -159.911 L -218.139 -162.714 L -215.347 -167.561 L -212.554 -171.943 L -209.762 -175.471 L -206.97 -179.76 L -204.177 -188.137 L -201.385 -196.206 L -198.593 -206.737 L -195.8 -216.318 L -193.008 -227.499 L -190.216 -236.884 L -187.423 -247.625 L -184.631 -257.843 L -181.839 -253.711 L -179.047 -217.713 L -176.254 -184.591 L -173.462 -170.072 L -170.67 -165.218 L -167.877 -162.461 L -165.085 -160.401 L -162.293 -161.764 L -159.5 -168.072 L -156.708 -173.936 L -153.916 -177.568 L -151.123 -181.492 L -148.331 -188.402 L -145.539 -197.903 L -142.746 -208.589 L -139.954 -217.956 L -137.162 -228.425 L -134.369 -237.843 L -131.577 -248.524 L -128.785 -258.108 L -125.992 -249.152 L -123.2 -209.995 L -120.408 -179.238 L -117.615 -167.065 L -114.823 -164.49 L -112.031 -162.473 L -109.238 -160.934 L -106.446 -164.561 L -103.654 -169.939 L -100.861 -173.969 L -98.069 -176.447 L -95.277 -179.294 L -92.484 -184.236 L -89.692 -192.579 L -86.9 -204.374 L -84.107 -212.771 L -81.315 -221.796 L -78.523 -231.608 L -75.73 -241.189 L -72.938 -241.696 L -70.146 -211.258 L -67.353 -168.577 L -64.561 -142.544 L -61.769 -132.107 L -58.976 -126.64 L -56.184 -120.302 L -53.392 -117.332 L -50.599 -121.327 L -47.807 -128.192 L -45.015 -132.894 L -42.222 -137.017 L -39.43 -141.74 L -36.638 -149.35 L -33.846 -158.393 L -31.053 -168.591 L -28.261 -178.722 L -25.469 -188.398 L -22.676 -197.016 L -19.884 -207.734 L -17.092 -211.328 L -14.299 -185.183 L -11.507 -138.712 L -8.715 -105.775 L -5.922 -93.251 L -3.13 -86.03 L -0.338 -79.183 L 2.455 -71.896 L 5.247 -71.613 L 8.039 -77.094 L 10.832 -83.457 L 13.624 -89.028 L 16.416 -95.171 L 19.209 -104.28 L 22.001 -118.01 L 24.793 -130.288 L 27.586 -139.946 L 30.378 -150.137 L 33.17 -160.468 L 35.963 -169.685 L 38.755 -178.546 L 41.547 -187.987 L 44.34 -194.001 L 47.132 -171.04 L 49.924 -119.296" clip-path="url(#p6ec198c4be)" style="fill: none; stroke-linecap: square; vector-effect: non-scaling-stroke; stroke-width: 1.5px; stroke: rgb(10, 103, 13);"/>
              </g>
            </g>
          </g>
        </g>
      </g>
    </g>
  </g>
  <path style="fill: rgb(216, 216, 216); stroke: rgb(0, 0, 0);" d="M 110 20 L 140.028 20.012" bx:origin="-0.52422 4.083153"/>
  <path style="fill: rgb(216, 216, 216); stroke: rgb(0, 0, 0);" d="M 110 60 L 140.028 60.012" bx:origin="-0.52422 4.083153"/>
  <path style="fill: rgb(216, 216, 216); stroke: rgb(0, 0, 0);" d="M 110 100 L 140.028 100.012" bx:origin="-0.52422 4.083153"/>
  <path style="fill: rgb(216, 216, 216); stroke: rgb(0, 0, 0);" d="M 235 20 L 265.028 20.012" bx:origin="-0.52422 4.083153"/>
  <path style="fill: rgb(216, 216, 216); stroke: rgb(0, 0, 0);" d="M 235 100 L 265.028 100.012" bx:origin="-0.52422 4.083153"/>
  <path style="fill: rgb(216, 216, 216); stroke: rgb(0, 0, 0);" d="M 235 60 L 265.028 60.012" bx:origin="-0.52422 4.083153"/>
  <g id="g-7" transform="matrix(0.173611, 0, 0, 0.104167, 243.651901, 194.722824)" style="stroke-linejoin: round;">
    <g id="g-8" transform="matrix(1, 0, 0, 1, 471.676331, -1015.183472)">
      <g id="g-9" transform="matrix(1, 0, 0, 1, 72.381874, 164.869186)">
        <path d="M -305.893 30.483 L -302.194 36.978 L -298.495 7.334 L -294.796 20.65 L -291.096 21.935 L -287.397 22.454 L -283.698 -8.82 L -279.999 -18.878 L -276.3 -50.448 L -272.601 -55.292 L -268.902 -65.71 L -265.203 -68.201 L -261.504 -77.597 L -257.805 -68.914 L -254.106 -69.19 L -250.407 -63.101 L -246.707 -56.466 L -243.008 -77.254 L -239.309 -66.948 L -235.61 -69.359 L -231.911 -67.613 L -228.212 -58.633 L -224.513 -70.359 L -220.814 -68.234 L -217.115 -76.941 L -213.416 -71.432 L -209.717 -83.065 L -206.018 -90.557 L -202.318 -99.869 L -198.619 -111.238 L -194.92 -114.32 L -191.221 -114.489 L -187.522 -124.738 L -183.823 -117.553 L -180.124 -127.607 L -176.425 -121.564 L -172.726 -131.072 L -169.027 -126.926 L -165.328 -107.109 L -161.629 -102.339 L -157.929 -108.584 L -154.23 -108.864 L -150.531 -126.242 L -146.832 -123.117 L -143.133 -108.552 L -139.434 -111.487 L -135.735 -94.391 L -132.036 -93.506 L -128.337 -107.872 L -124.638 -122.426 L -120.939 -116.27 L -117.239 -123.12 L -113.54 -100.827 L -109.841 -110.709 L -106.142 -102.093 L -102.443 -84.013 L -98.744 -92.583 L -95.045 -83.577 L -91.346 -60.374 L -87.647 -61.583 L -83.948 -73.959 L -80.249 -67.881 L -76.55 -61 L -72.85 -58.259 L -69.151 -54.336 L -65.452 -49.452 L -61.753 -72.075 L -58.054 -86.369 L -54.355 -101.062 L -50.656 -113.518 L -46.957 -109.499 L -43.258 -114.479 L -39.559 -94.122 L -35.86 -107.996 L -32.161 -96.503 L -28.461 -86.616 L -24.762 -86.787 L -21.063 -91.648 L -17.364 -107.638 L -13.665 -111.096 L -9.966 -113.464 L -6.267 -119.285 L -2.568 -92.741 L 1.131 -94.843 L 4.83 -99.286 L 8.529 -81.015 L 12.228 -81.794 L 15.928 -93.321 L 19.627 -113.056 L 23.326 -124.961 L 27.025 -120.361 L 30.724 -121.392 L 34.423 -119.983 L 38.122 -114.151 L 41.821 -124.156 L 45.52 -116.668 L 49.219 -114.782 L 52.918 -129.227 L 56.617 -129.678 L 60.317 -152.186 L 64.016 -145.806 L 67.715 -136.707 L 71.414 -148.785 L 75.113 -153.039 L 78.812 -155.021 L 82.511 -147.818 L 86.21 -144.543 L 89.909 -135.921 L 93.608 -134.811 L 97.307 -145.624" clip-path="url(#clip-1)" style="stroke-linecap: square; fill-rule: evenodd; paint-order: fill; vector-effect: non-scaling-stroke; stroke-width: 2px; fill: none; stroke: rgb(100, 85, 218);"/>
        <g id="g-10" transform="matrix(0.933334, 0, 0, 0.666664, 776.632813, -553.461365)" style="stroke-linejoin: round;" bx:origin="0.509 0.5">
          <g id="g-11" transform="matrix(1.419353, 0, 0, 1.456953, -1633.928955, -1175.731812)">
            <g id="g-12">
              <path d="M 355.752 564.147 L 358.544 550.8 L 361.337 537.725 L 364.129 522.119 L 366.921 508.448 L 369.714 513.111 L 372.506 563.823 L 375.298 609.67 L 378.091 627.809 L 380.883 632.902 L 383.675 633.609 L 386.467 639.375 L 389.26 638.584 L 392.052 632.086 L 394.844 623.896 L 397.637 617.435 L 400.429 611.259 L 403.221 605.465 L 406.014 591.872 L 408.806 578.499 L 411.598 566.31 L 414.391 550.846 L 417.183 535.969 L 419.975 522.563 L 422.768 505.337 L 425.56 489.821 L 428.352 503.343 L 431.145 556.249 L 433.937 588.607 L 436.729 599.681 L 439.522 600.08 L 442.314 601.242 L 445.106 602.376 L 447.899 599.268 L 450.691 593.363 L 453.483 584.337 L 456.276 580.127 L 459.068 575.232 L 461.86 567.497 L 464.653 554.302 L 467.445 541.25 L 470.237 528.247 L 473.03 515.925 L 475.822 502.287 L 478.614 486.756 L 481.407 475.92 L 484.199 497.642 L 486.991 549.625 L 489.784 580.965 L 492.576 589.343 L 495.368 592.221 L 498.161 593.234 L 500.953 592.426 L 503.745 586.665 L 506.538 578.801 L 509.33 572.508 L 512.122 570.368 L 514.915 565.929 L 517.707 554.752 L 520.499 543.404 L 523.292 526.773 L 526.084 517.497 L 528.876 502.793 L 531.668 492.156 L 534.461 480.472 L 537.253 484.831 L 540.045 532.183 L 542.838 582.33 L 545.63 606.642 L 548.422 613.915 L 551.215 620.157 L 554.007 626.078 L 556.799 626.341 L 559.592 620.318 L 562.384 610.093 L 565.176 605.24 L 567.969 600.911 L 570.761 592.425 L 573.553 582.938 L 576.346 570.574 L 579.138 556.118 L 581.93 544.581 L 584.723 530.481 L 587.515 518.602 L 590.307 504.541 L 593.1 503.161 L 595.892 545.71 L 598.684 605.092 L 601.477 635.439 L 604.269 645.836 L 607.061 653.314 L 609.854 663.871 L 612.646 673.593 L 615.438 672.434 L 618.231 667.325 L 621.023 659.766 L 623.815 652.037 L 626.608 642.939 L 629.4 626.295 L 632.192 608.07 L 634.985 594.691 L 637.777 582.615 L 640.569 572.309 L 643.362 560.715 L 646.154 548.97 L 648.946 535.511 L 651.739 525.122 L 654.531 519.779 L 657.323 558.747 L 660.116 620.017" clip-path="url(#clip-2)" style="fill: none; stroke-linecap: square; vector-effect: non-scaling-stroke; stroke-width: 2px; stroke: rgb(218, 85, 85);" bx:origin="0.505 0.513"/>
            </g>
          </g>
          <g id="g-13" transform="matrix(1, 0, 0, 1.000001, -187.928787, 1025.426636)" style="stroke-linejoin: round;">
            <g id="g-14" transform="matrix(1.419354, 0, 0, 1.456953, -610.666565, -611.426819)">
              <g id="g-15">
                <path d="M -254.439 -231.862 L -251.647 -240.623 L -248.855 -249.857 L -246.062 -259.744 L -243.27 -269.18 L -240.478 -269.286 L -237.685 -239.659 L -234.893 -201.384 L -232.101 -180.201 L -229.308 -172.617 L -226.516 -166.719 L -223.724 -161.732 L -220.931 -159.911 L -218.139 -162.714 L -215.347 -167.561 L -212.554 -171.943 L -209.762 -175.471 L -206.97 -179.76 L -204.177 -188.137 L -201.385 -196.206 L -198.593 -206.737 L -195.8 -216.318 L -193.008 -227.499 L -190.216 -236.884 L -187.423 -247.625 L -184.631 -257.843 L -181.839 -253.711 L -179.047 -217.713 L -176.254 -184.591 L -173.462 -170.072 L -170.67 -165.218 L -167.877 -162.461 L -165.085 -160.401 L -162.293 -161.764 L -159.5 -168.072 L -156.708 -173.936 L -153.916 -177.568 L -151.123 -181.492 L -148.331 -188.402 L -145.539 -197.903 L -142.746 -208.589 L -139.954 -217.956 L -137.162 -228.425 L -134.369 -237.843 L -131.577 -248.524 L -128.785 -258.108 L -125.992 -249.152 L -123.2 -209.995 L -120.408 -179.238 L -117.615 -167.065 L -114.823 -164.49 L -112.031 -162.473 L -109.238 -160.934 L -106.446 -164.561 L -103.654 -169.939 L -100.861 -173.969 L -98.069 -176.447 L -95.277 -179.294 L -92.484 -184.236 L -89.692 -192.579 L -86.9 -204.374 L -84.107 -212.771 L -81.315 -221.796 L -78.523 -231.608 L -75.73 -241.189 L -72.938 -241.696 L -70.146 -211.258 L -67.353 -168.577 L -64.561 -142.544 L -61.769 -132.107 L -58.976 -126.64 L -56.184 -120.302 L -53.392 -117.332 L -50.599 -121.327 L -47.807 -128.192 L -45.015 -132.894 L -42.222 -137.017 L -39.43 -141.74 L -36.638 -149.35 L -33.846 -158.393 L -31.053 -168.591 L -28.261 -178.722 L -25.469 -188.398 L -22.676 -197.016 L -19.884 -207.734 L -17.092 -211.328 L -14.299 -185.183 L -11.507 -138.712 L -8.715 -105.775 L -5.922 -93.251 L -3.13 -86.03 L -0.338 -79.183 L 2.455 -71.896 L 5.247 -71.613 L 8.039 -77.094 L 10.832 -83.457 L 13.624 -89.028 L 16.416 -95.171 L 19.209 -104.28 L 22.001 -118.01 L 24.793 -130.288 L 27.586 -139.946 L 30.378 -150.137 L 33.17 -160.468 L 35.963 -169.685 L 38.755 -178.546 L 41.547 -187.987 L 44.34 -194.001 L 47.132 -171.04 L 49.924 -119.296" clip-path="url(#clip-3)" style="fill: none; stroke-linecap: square; vector-effect: non-scaling-stroke; stroke-width: 1.5px; stroke: rgb(10, 103, 13);"/>
              </g>
            </g>
          </g>
        </g>
      </g>
    </g>
  </g>
  <path style="fill: rgb(216, 216, 216); stroke: rgb(0, 0, 0);" d="M 300 5 L 301 120" bx:origin="0.5 0.504348"/>
  <path style="fill: rgb(216, 216, 216); stroke: rgb(0, 0, 0);" d="M 340 5 L 341 120" bx:origin="0.5 0.504348"/>
  <text style="fill: rgb(51, 51, 51); font-family: Arial, sans-serif; font-size: 9px; white-space: pre;" x="5" y="148.386">(1) Video</text>
  <text style="fill: rgb(51, 51, 51); font-family: Arial, sans-serif; font-size: 9px; white-space: pre;" x="70" y="148.386">(2) Frames</text>
  <text style="fill: rgb(51, 51, 51); font-family: Arial, sans-serif; font-size: 9px; white-space: pre;" x="160" y="148.386">(3) Full Signal</text>
  <text style="fill: rgb(51, 51, 51); font-family: Arial, sans-serif; font-size: 9px; white-space: pre;" x="275" y="148.386">(4) Downsampled Signal</text>
</svg>